<?xml version="1.0" encoding="UTF-8"?>
<svg version="1.1" xmlns="http://www.w3.org/2000/svg" width="547" height="318">
<path d="M0 0 C0.85078125 -0.00386719 1.7015625 -0.00773438 2.578125 -0.01171875 C7.8079303 -0.00369758 12.82453277 0.37024436 18 1.125 C20.03562449 6.97200651 21.78459192 12.84997234 23.3515625 18.83984375 C23.92468474 21.12942313 23.92468474 21.12942313 25 23.125 C27.3787442 23.81699831 29.75273033 24.17493748 32.19921875 24.5625 C35 25.125 35 25.125 37.39453125 26.1875 C40.3775335 27.37476458 41.81409996 27.76486476 45 27.125 C48.40151236 24.52619007 51.24235389 21.37646627 54.00292969 18.11914062 C55.59262021 16.28748112 57.09557999 14.62767274 59 13.125 C63.96473391 12.83718934 68.05774888 15.44759928 72.3125 17.8125 C73.29500732 18.35161011 73.29500732 18.35161011 74.29736328 18.90161133 C76.20720781 19.96109228 78.10564734 21.03810165 80 22.125 C80.97066406 22.681875 81.94132813 23.23875 82.94140625 23.8125 C88.68253181 27.35117129 88.68253181 27.35117129 89.875 30.2578125 C90.05574426 34.40363395 88.87624897 37.88903582 87.625 41.8125 C87.39039063 42.58400391 87.15578125 43.35550781 86.9140625 44.15039062 C85.20076885 49.7234623 85.20076885 49.7234623 84 52.125 C84.66 52.125 85.32 52.125 86 52.125 C87.55078125 53.6640625 87.55078125 53.6640625 89.3125 55.75 C89.92867187 56.47445312 90.54484375 57.19890625 91.1796875 57.9453125 C92.08074219 59.02425781 92.08074219 59.02425781 93 60.125 C93.51820313 60.74117187 94.03640625 61.35734375 94.5703125 61.9921875 C95.71958835 63.36475123 96.8607561 64.7440983 98 66.125 C103.85988562 65.08514556 109.35195369 63.80743484 114.89453125 61.61328125 C117.75585643 60.94970862 119.24192971 61.05432054 122 62.125 C123.72529199 64.22835598 125.0639326 66.12335408 126.4375 68.4375 C126.82220459 69.06398438 127.20690918 69.69046875 127.60327148 70.3359375 C137.74036741 87.08657379 137.74036741 87.08657379 137 94.125 C134.75 96.1875 134.75 96.1875 132 98.125 C131.34 98.95 130.68 99.775 130 100.625 C127.90532454 103.24334432 125.62909541 105.06435765 123 107.125 C122.67 107.785 122.34 108.445 122 109.125 C114.88424528 109.40481944 107.76991545 109.59689685 100.64990234 109.72924805 C98.23041786 109.78443495 95.81129811 109.85940762 93.39306641 109.95483398 C72.1516256 110.77181248 72.1516256 110.77181248 67.66015625 106.76806641 C65.56845973 103.92508015 64.22619701 101.42185592 63 98.125 C62.11674839 95.87995232 62.11674839 95.87995232 61 94.125 C60.01 93.795 59.02 93.465 58 93.125 C58 92.465 58 91.805 58 91.125 C57.42765625 90.86332031 56.8553125 90.60164063 56.265625 90.33203125 C53.84066649 89.0401137 51.88259256 87.54235476 49.75 85.8125 C32.96249031 72.64369175 13.36697279 66.23091576 -8 68.125 C-22.54312758 70.17073328 -35.28007028 74.8866898 -47.07421875 83.8046875 C-49 85.125 -49 85.125 -51 85.125 C-51 85.785 -51 86.445 -51 87.125 C-52.5390625 88.60546875 -52.5390625 88.60546875 -54.625 90.3125 C-58.95522042 93.98895713 -63.42601559 97.97703119 -66 103.125 C-66.66 103.125 -67.32 103.125 -68 103.125 C-68.27199219 104.00800781 -68.54398437 104.89101562 -68.82421875 105.80078125 C-69.91529766 108.88552593 -71.21889251 111.46587132 -72.8125 114.3125 C-83.44961701 135.11744945 -83.97612267 158.31100495 -77.3125 180.375 C-72.73014037 193.01599207 -64.65337724 206.81037336 -53.6875 214.8125 C-53.130625 215.245625 -52.57375 215.67875 -52 216.125 C-52 216.785 -52 217.445 -52 218.125 C-51.2265625 218.49625 -51.2265625 218.49625 -50.4375 218.875 C-48.54024472 219.84795143 -46.67643109 220.88621513 -44.828125 221.94921875 C-41.0349052 224.12086052 -37.1991708 226.18831056 -33.3125 228.1875 C-32.36600586 228.69506836 -32.36600586 228.69506836 -31.40039062 229.21289062 C-21.2320278 234.41273591 -10.86315803 235.66508026 0.4375 235.5625 C2.22571167 235.54896484 2.22571167 235.54896484 4.05004883 235.53515625 C12.43943824 235.36942855 19.33249091 234.72792639 27 231.125 C27.65033203 230.82996582 28.30066406 230.53493164 28.97070312 230.23095703 C38.13650203 226.13043572 38.13650203 226.13043572 46.28515625 220.37109375 C49 218.125 49 218.125 52 218.125 C52.226875 217.568125 52.45375 217.01125 52.6875 216.4375 C54.3592504 213.49203501 56.58281215 211.48175815 59 209.125 C59.66 208.135 60.32 207.145 61 206.125 C61.66 206.125 62.32 206.125 63 206.125 C63.26039063 205.57199219 63.52078125 205.01898438 63.7890625 204.44921875 C65.64500138 200.88701348 67.92659773 197.61207875 70.1484375 194.26953125 C71.67728797 191.6730658 72.91142265 189.17894571 74.11572266 186.4284668 C74.4702652 185.62152878 74.82480774 184.81459076 75.19009399 183.98320007 C75.59099747 183.06339104 75.59099747 183.06339104 76 182.125 C66.13289676 182.13991932 56.26629901 182.18171149 46.39946175 182.25709057 C41.81702351 182.29126978 37.23491545 182.31645636 32.65234375 182.32055664 C28.22349937 182.32485916 23.79539868 182.3534823 19.36678696 182.39843178 C17.68369771 182.41134472 16.00051917 182.41573662 14.31738663 182.41115379 C2.10027058 182.36109586 2.10027058 182.36109586 -9.04837036 187.05610657 C-11 188.125 -11 188.125 -15 188.125 C-14.45888427 182.82343578 -13.13372626 178.37036287 -10.9375 173.5 C-10.472229 172.46166016 -10.472229 172.46166016 -9.99755859 171.40234375 C-3.54670624 157.36054831 4.35214496 145.45379646 19 139.125 C26.32178771 137.01053439 33.5822646 136.84784268 41.15087891 136.89794922 C42.90871201 136.89751114 42.90871201 136.89751114 44.70205688 136.89706421 C48.54363626 136.89844834 52.38501735 136.91396634 56.2265625 136.9296875 C58.90270313 136.93342089 61.57883302 136.93636481 64.25497437 136.93826294 C70.55871718 136.94445372 76.86238978 136.96083164 83.16610181 136.98096192 C90.3487748 137.00339616 97.53145131 137.01433318 104.71415067 137.02435279 C119.47613619 137.04520029 134.23806686 137.08032903 149 137.125 C149.3369058 139.36531479 149.66908717 141.6063404 149.99926758 143.84765625 C150.18475662 145.09554932 150.37024567 146.34344238 150.56135559 147.62915039 C151.06458709 151.63973755 151.05310288 155.10777312 150.6875 159.125 C150.58824219 160.32125 150.48898437 161.5175 150.38671875 162.75 C150.02580439 165.89979807 149.55657531 169.00437262 149 172.125 C141.69302596 174.23909642 134.3980335 176.34947196 127 178.125 C126.29878357 180.51756249 125.61385099 182.91290489 124.9375 185.3125 C124.73833984 185.98603516 124.53917969 186.65957031 124.33398438 187.35351562 C123.24070204 191.28549594 122.47520153 194.27423777 124 198.125 C126.13832934 200.74718485 126.13832934 200.74718485 128.8125 203.1875 C129.68519531 204.02410156 130.55789063 204.86070312 131.45703125 205.72265625 C132.29621094 206.51542969 133.13539063 207.30820313 134 208.125 C135.33782263 209.45382887 136.67286812 210.78549393 138 212.125 C134.6784596 223.54785844 128.23563408 233.11394479 122 243.125 C115.1825732 242.71595439 109.31231675 240.57815612 102.9765625 238.18359375 C100.21247045 237.01330572 100.21247045 237.01330572 98 237.125 C96.6559907 239.11784138 95.32458708 241.11919671 94 243.125 C89.63829787 247.91223404 89.63829787 247.91223404 86 249.125 C86 249.785 86 250.445 86 251.125 C85.34 251.125 84.68 251.125 84 251.125 C84.50660156 252.48431641 84.50660156 252.48431641 85.0234375 253.87109375 C87.47490464 260.56657482 89.66822473 267.10291219 91 274.125 C84.21554444 279.20689257 77.37918653 283.9473653 70 288.125 C68.9275 288.74375 67.855 289.3625 66.75 290 C63.47420043 291.34009982 61.50148799 291.72099796 58 291.125 C53.46819938 287.36692144 49.60443587 282.50194203 46.3125 277.625 C43.45539789 275.77174458 42.65053269 276.07940579 39.375 276.6875 C37.5792408 277.15109362 35.78762894 277.63098289 34 278.125 C33.07445312 278.31320312 32.14890625 278.50140625 31.1953125 278.6953125 C30.30585938 278.89898437 29.41640625 279.10265625 28.5 279.3125 C27.6853125 279.49167969 26.870625 279.67085938 26.03125 279.85546875 C23.66850388 281.04383432 23.66850388 281.04383432 22.8515625 284.2421875 C22.57054687 285.52351563 22.28953125 286.80484375 22 288.125 C21.65021045 289.44847943 21.29337069 290.77011458 20.9296875 292.08984375 C20.577478 293.41389056 20.22591779 294.73811026 19.875 296.0625 C19.69324219 296.74634766 19.51148438 297.43019531 19.32421875 298.13476562 C18.88223414 299.7980235 18.44103362 301.4614897 18 303.125 C13.87540317 303.42399494 9.75506142 303.64034009 5.62207031 303.78417969 C4.22056212 303.8441614 2.81979382 303.9257998 1.42089844 304.03027344 C-3.23104714 304.36871741 -7.45517637 304.39105801 -12 303.125 C-15.66492924 299.60528888 -17.72822655 295.62818185 -20 291.125 C-20.91027984 289.773162 -21.84818826 288.43894736 -22.828125 287.13671875 C-23.43914062 286.29463867 -23.43914062 286.29463867 -24.0625 285.43554688 C-24.86892239 284.33334785 -25.67624578 283.23180757 -26.484375 282.13085938 C-28.5125235 279.33240447 -30.38168048 276.53325034 -32.0703125 273.515625 C-33.7648485 270.53818117 -35.55361892 267.90673857 -37.625 265.1875 C-40.93645015 260.70477766 -43.95220108 256.11415037 -46.875 251.375 C-51.33932779 244.13781909 -55.99139546 237.04937648 -60.74121094 229.99707031 C-62.87929225 226.81731711 -65.00113629 223.62675861 -67.125 220.4375 C-67.95699139 219.19007758 -68.78902193 217.94268127 -69.62109375 216.6953125 C-71.13728331 214.42133397 -72.64977875 212.14504434 -74.16015625 209.8671875 C-77.84689136 204.31222246 -81.58869368 198.80928037 -85.45703125 193.37890625 C-87.07470756 191.01587022 -88.52880915 188.58107138 -90 186.125 C-90.556875 185.42375 -91.11375 184.7225 -91.6875 184 C-93 182.125 -93 182.125 -93 179.125 C-93.66 179.125 -94.32 179.125 -95 179.125 C-96.41133663 177.1956563 -97.68272006 175.27913967 -98.9375 173.25 C-99.32719971 172.63084717 -99.71689941 172.01169434 -100.1184082 171.3737793 C-101.42103673 169.29618546 -102.71116386 167.21117489 -104 165.125 C-104.46212891 164.38169434 -104.92425781 163.63838867 -105.40039062 162.87255859 C-110.85629749 154.08974272 -116.19991146 145.28747904 -121 136.125 C-121.74443359 134.81789062 -121.74443359 134.81789062 -122.50390625 133.484375 C-125.40637187 128.20141306 -126.69395936 125.1597302 -125 119.125 C-124.75121094 118.17625 -124.50242188 117.2275 -124.24609375 116.25 C-123.52839887 113.53177398 -122.77683227 110.82681286 -122 108.125 C-122.66 107.67125 -123.32 107.2175 -124 106.75 C-124.66 106.21375 -125.32 105.6775 -126 105.125 C-126 104.465 -126 103.805 -126 103.125 C-126.58136719 102.86074219 -127.16273438 102.59648438 -127.76171875 102.32421875 C-131.55580768 100.29143463 -134.48989281 97.62198694 -137 94.125 C-137.66534813 85.47547436 -131.26033745 75.91539803 -126.390625 69.078125 C-124.85126795 66.98019117 -124.85126795 66.98019117 -123.1875 64 C-121 62.125 -121 62.125 -117.125 62.125 C-114.13765004 62.57211981 -111.5435245 63.28702727 -108.6875 64.30078125 C-104.88237345 65.51491702 -102.00348149 66.29809953 -98 66.125 C-92.29782623 62.74068821 -88.58705178 56.50557767 -85 51.125 C-85.67850082 48.41984672 -86.43688036 45.92549487 -87.375 43.3125 C-90.64829883 34.06372595 -90.64829883 34.06372595 -90 29.125 C-87.64736662 27.0727028 -85.66804534 25.6538245 -83 24.125 C-82.31292969 23.72539063 -81.62585938 23.32578125 -80.91796875 22.9140625 C-79.44450985 22.0804299 -77.96088517 21.26456688 -76.46875 20.46484375 C-74.67795617 19.4929414 -72.90955173 18.47941867 -71.15625 17.44140625 C-70.1971875 16.88324219 -69.238125 16.32507813 -68.25 15.75 C-67.36828125 15.22664063 -66.4865625 14.70328125 -65.578125 14.1640625 C-62.36798227 12.8702777 -61.20801917 12.8162069 -58 14.125 C-55.31512821 16.58137206 -52.90208659 19.13133102 -50.4609375 21.8203125 C-48.24786466 24.16957444 -46.48026653 25.94471758 -43.4296875 27.08984375 C-40.66856762 27.12979565 -38.71954328 26.62004351 -36.125 25.6875 C-31.83696515 24.27527295 -28.48836996 23.83228022 -24 24.125 C-23.896875 23.196875 -23.79375 22.26875 -23.6875 21.3125 C-22.69752815 14.36855457 -20.69542321 7.58934831 -18 1.125 C-11.95890925 0.2440076 -6.1007632 -0.02773074 0 0 Z " fill="#060606" transform="translate(368,8.875)"/>
<path d="M0 0 C0 0.66 0 1.32 0 2 C-1.03898438 2.37511719 -2.07796875 2.75023437 -3.1484375 3.13671875 C-10.0381537 5.65245887 -16.81459119 8.17289621 -23.31640625 11.59375 C-25.45639987 12.71514404 -27.60420815 13.78958908 -29.77734375 14.84375 C-37.11979216 18.42046054 -44.10916717 22.11624333 -50.86328125 26.75 C-53 28 -53 28 -56 28 C-56.33 28.99 -56.66 29.98 -57 31 C-58.99609375 32.60546875 -58.99609375 32.60546875 -61.4375 34.1875 C-62.24058594 34.71730469 -63.04367188 35.24710938 -63.87109375 35.79296875 C-66 37 -66 37 -68 37 C-68 37.66 -68 38.32 -68 39 C-69.65483608 40.49877503 -71.37590512 41.92488473 -73.125 43.3125 C-74.07632813 44.07175781 -75.02765625 44.83101562 -76.0078125 45.61328125 C-77.48894531 46.79470703 -77.48894531 46.79470703 -79 48 C-80.06463836 48.88028097 -81.12700537 49.76331667 -82.18701172 50.64916992 C-83.57944092 51.81283081 -83.57944092 51.81283081 -85 53 C-83.4365686 52.98428955 -83.4365686 52.98428955 -81.84155273 52.96826172 C-77.89969446 52.93150846 -73.95785061 52.9089027 -70.01586914 52.89013672 C-68.32378577 52.88020308 -66.63171898 52.86665157 -64.93969727 52.84912109 C-50.69724307 52.7054713 -37.16814744 53.78250647 -23.25 57.0625 C-22.48429688 57.23587891 -21.71859375 57.40925781 -20.9296875 57.58789062 C-17.90210093 58.2810486 -14.9481771 59.0172743 -12 60 C-12.33 58.68 -12.66 57.36 -13 56 C-13.66 56 -14.32 56 -15 56 C-15.81837442 54.58671871 -16.62946219 53.16921654 -17.4375 51.75 C-17.88996094 50.96109375 -18.34242188 50.1721875 -18.80859375 49.359375 C-19.89311602 47.21166532 -20.53148716 45.34794939 -21 43 C-21.66 43 -22.32 43 -23 43 C-24.69140625 40.515625 -24.69140625 40.515625 -26.5625 37.25 C-27.18253906 36.18265625 -27.80257812 35.1153125 -28.44140625 34.015625 C-29.69919375 31.5820111 -30.5272716 29.6680014 -31 27 C-26.84365535 24.32922385 -22.55589405 22.4219024 -18 20.5625 C-17.25685547 20.25683105 -16.51371094 19.95116211 -15.74804688 19.63623047 C-10.0278193 17.32387626 -4.28008779 15.41636162 1.65625 13.7265625 C3.93595149 13.2193901 3.93595149 13.2193901 5 12 C7.875 11.6875 7.875 11.6875 11 12 C13.42616518 14.76913094 15.28923821 17.95185221 17.25 21.0625 C17.86488281 22.03445312 18.47976563 23.00640625 19.11328125 24.0078125 C20.04720703 25.48894531 20.04720703 25.48894531 21 27 C24.64383739 32.77420734 28.32593069 38.51384301 32.125 44.1875 C41 57.46546693 41 57.46546693 41 60 C41.66 60 42.32 60 43 60 C44.10986328 61.4777832 44.10986328 61.4777832 45.3203125 63.55078125 C45.76898682 64.30633301 46.21766113 65.06188477 46.67993164 65.84033203 C47.39524048 67.06405518 47.39524048 67.06405518 48.125 68.3125 C51.81508093 74.49932517 55.63889705 80.40344189 59.97265625 86.1640625 C62.4848141 89.67817926 64.73978127 93.32062388 67 97 C70.48676904 102.67346566 74.1654396 108.09623922 78.14453125 113.44140625 C80.62142826 116.85691687 82.84645986 120.40650785 85.0859375 123.98046875 C87.3427247 127.54066571 89.6623074 131.05508425 92 134.5625 C92.63663574 135.51962891 92.63663574 135.51962891 93.28613281 136.49609375 C96.35731101 141.09222187 99.53724952 145.59885419 102.8203125 150.046875 C104 152 104 152 104 155 C99.73056886 154.45772878 97.32479299 153.04821903 93.9375 150.4375 C85.32806178 143.97173078 76.50913853 138.05528561 67 133 C65.12406956 131.9808775 63.24910694 130.95997195 61.375 129.9375 C60.44558594 129.43347656 59.51617187 128.92945313 58.55859375 128.41015625 C56.49001613 127.27006996 54.46218877 126.08981326 52.4375 124.875 C49.07027445 123.03833152 45.75694153 121.63622415 42.18359375 120.265625 C39.64927387 119.25811624 37.15651107 118.20504802 34.66015625 117.109375 C26.04014786 113.34485157 17.65452854 110.0556332 8.4921875 107.88671875 C5.81396415 107.2066777 3.28623156 106.44450232 0.6796875 105.55078125 C-4.07459893 103.93608954 -8.86988532 102.67274074 -13.75 101.5 C-14.53503906 101.30019531 -15.32007813 101.10039062 -16.12890625 100.89453125 C-32.77510141 96.88001107 -49.42877441 95.49986761 -66.51123047 95.60888672 C-69.49883639 95.62499373 -72.48509028 95.6089102 -75.47265625 95.58984375 C-93.88556958 95.56982951 -111.32942818 97.80028628 -129 103 C-130.79112865 103.46043138 -132.58276543 103.9188924 -134.375 104.375 C-139.21436559 105.70274198 -143.94938808 107.29048597 -148.6875 108.9375 C-149.38858887 109.17839355 -150.08967773 109.41928711 -150.81201172 109.66748047 C-155.1207306 111.19363296 -159.15341118 113.0085512 -163.21606445 115.10083008 C-165.34587831 116.17433554 -167.51568629 117.04307468 -169.75 117.875 C-174.85717354 119.85759842 -179.67486994 122.29980342 -184.53125 124.828125 C-187 126 -187 126 -189 126 C-189 126.66 -189 127.32 -189 128 C-189.74830078 128.38478516 -189.74830078 128.38478516 -190.51171875 128.77734375 C-197.7338067 132.62825959 -204.33504911 137.27863479 -211 142 C-211.74121094 142.51175781 -212.48242188 143.02351562 -213.24609375 143.55078125 C-216.48486653 145.80050944 -219.26207986 148.17081585 -222 151 C-226.66666667 155 -226.66666667 155 -229 155 C-229.2422645 151.20888795 -228.91040304 149.26199406 -226.6875 146.1875 C-226.14222656 145.41664063 -225.59695312 144.64578125 -225.03515625 143.8515625 C-224.36355469 142.91054688 -223.69195312 141.96953125 -223 141 C-222.14140712 139.73910085 -221.28618083 138.47590535 -220.43359375 137.2109375 C-215.25233388 129.54095464 -209.92665414 122.11899875 -204 115 C-202.39467946 113.04261243 -200.79053245 111.08426188 -199.1875 109.125 C-198.45917969 108.24070312 -197.73085937 107.35640625 -196.98046875 106.4453125 C-195.72530031 104.89553844 -194.51282408 103.30934965 -193.36328125 101.6796875 C-192.91339844 101.12539063 -192.46351563 100.57109375 -192 100 C-191.34 100 -190.68 100 -190 100 C-189.505 98.515 -189.505 98.515 -189 97 C-188.34 97 -187.68 97 -187 97 C-186.62875 96.071875 -186.62875 96.071875 -186.25 95.125 C-184.76259631 92.59641373 -183.56321991 92.28160996 -181 91 C-180.31513275 89.67592331 -179.65129797 88.34090759 -179 87 C-176.5 84.25 -176.5 84.25 -174 82 C-173.34 82 -172.68 82 -172 82 C-171.505 80.515 -171.505 80.515 -171 79 C-170.34 79 -169.68 79 -169 79 C-168.505 77.515 -168.505 77.515 -168 76 C-166.54519499 74.73495216 -165.08757862 73.47066464 -163.5703125 72.28125 C-161.96997946 71.02062605 -161.96997946 71.02062605 -160.53515625 69.52734375 C-157.32993555 66.33843461 -153.59188224 63.73347513 -150 61 C-149.39333496 60.53819336 -148.78666992 60.07638672 -148.16162109 59.60058594 C-126.31113999 43 -126.31113999 43 -123 43 C-123 42.34 -123 41.68 -123 41 C-121.0078125 39.625 -121.0078125 39.625 -118.125 38 C-117.03574219 37.38382813 -115.94648437 36.76765625 -114.82421875 36.1328125 C-114.21626465 35.79411133 -113.60831055 35.45541016 -112.98193359 35.10644531 C-110.84260718 33.91213301 -108.71232595 32.70252992 -106.58203125 31.4921875 C-98.54792794 26.94928583 -90.55199295 22.50472921 -82 19 C-81.3615918 18.73622559 -80.72318359 18.47245117 -80.06542969 18.20068359 C-69.22395145 13.75156301 -58.31062794 10.05365431 -47 7 C-46.34322266 6.81840332 -45.68644531 6.63680664 -45.00976562 6.44970703 C-7.64300762 -3.82150381 -7.64300762 -3.82150381 0 0 Z " fill="#070707" transform="translate(238,157)"/>
<path d="M0 0 C3.68690606 1.22896869 3.9912398 2.20087402 5.875 5.5 C6.40222656 6.41523437 6.92945313 7.33046875 7.47265625 8.2734375 C7.97667969 9.17320313 8.48070312 10.07296875 9 11 C9.39058594 11.69351563 9.78117187 12.38703125 10.18359375 13.1015625 C10.97557117 14.52109297 11.76293811 15.94320086 12.546875 17.3671875 C21.11842951 32.89736959 29.89517182 48.3275051 38.875 63.625 C41.53105818 68.15251805 44.04790102 72.74342888 46.5390625 77.36328125 C47.94044152 79.8925081 49.4200167 82.35160777 50.9375 84.8125 C54.10810823 90.01062876 56.74423204 95.41907424 59.38671875 100.8984375 C60.8511215 103.95006608 60.8511215 103.95006608 62.70703125 106.1640625 C64 108 64 108 64 112 C62.88625 112.10957031 61.7725 112.21914062 60.625 112.33203125 C48.51530743 113.57172179 36.64749944 115.3596041 24.8125 118.25 C21.12406628 118.97559352 19.46834822 119.2328252 16 118 C14.2265625 115.69921875 14.2265625 115.69921875 12.625 112.6875 C12.0371875 111.61242187 11.449375 110.53734375 10.84375 109.4296875 C10.2353125 108.29789062 9.626875 107.16609375 9 106 C7.71738919 103.76561053 6.42613167 101.53615536 5.125 99.3125 C4.55007812 98.31863281 3.97515625 97.32476562 3.3828125 96.30078125 C2.19493524 94.11433216 2.19493524 94.11433216 1 93 C-2.90318786 99.40649822 -6.68142742 105.88154823 -10.4375 112.375 C-10.91711182 113.19991943 -11.39672363 114.02483887 -11.89086914 114.87475586 C-13.97665401 118.46759223 -16.04989776 122.06071471 -18.01953125 125.71875 C-23.04403767 134.88308676 -28.00686546 138.16788557 -37.234375 142.59765625 C-41.43178743 144.72600521 -45.42015877 147.19042303 -49.43359375 149.64453125 C-52 151 -52 151 -55 151 C-55 151.66 -55 152.32 -55 153 C-56.8359375 154.26171875 -56.8359375 154.26171875 -59.375 155.6875 C-67.13962994 160.19493348 -74.34810023 165.39410325 -81.40625 170.93359375 C-83 172 -83 172 -85 172 C-85 172.66 -85 173.32 -85 174 C-86.68113694 175.3337216 -88.42195478 176.59271116 -90.1875 177.8125 C-94.9295013 181.17268578 -98.75871824 184.50010881 -102.625 188.8125 C-104 190 -104 190 -107 190 C-106.32836506 186.60691604 -105.01949751 183.96847349 -103.3359375 180.95703125 C-102.79549805 179.98588379 -102.25505859 179.01473633 -101.69824219 178.01416016 C-101.13782227 177.0194873 -100.57740234 176.02481445 -100 175 C-99.47825195 174.06849121 -98.95650391 173.13698242 -98.41894531 172.17724609 C-96.82737585 169.34365747 -95.22751828 166.51490964 -93.625 163.6875 C-93.05265625 162.67623047 -92.4803125 161.66496094 -91.890625 160.62304688 C-88.33434755 154.3432402 -84.76235015 148.07281565 -81.171875 141.8125 C-79.3547462 138.63341361 -77.55947657 135.44227317 -75.765625 132.25 C-75.18683594 131.22132813 -74.60804687 130.19265625 -74.01171875 129.1328125 C-72.86129727 127.08705191 -71.71277387 125.04022247 -70.56640625 122.9921875 C-67.86796027 118.19640216 -65.10083575 113.54420918 -62 109 C-61.20853011 107.63677425 -60.43564773 106.26247397 -59.6875 104.875 C-57.69474054 101.2267173 -55.61714124 97.64005538 -53.5 94.0625 C-50.42334166 88.818043 -47.63096368 83.48016397 -45 78 C-44.34 78 -43.68 78 -43 78 C-42.90332031 77.28457031 -42.80664062 76.56914063 -42.70703125 75.83203125 C-41.89197942 72.56732089 -40.5679825 70.46996983 -38.6875 67.6875 C-36.61669933 64.53719473 -34.62930584 61.46340913 -33 58.0625 C-30.95433558 53.80069914 -28.56684377 49.7745632 -26.16796875 45.703125 C-23.50899253 41.17946133 -20.91276896 36.62007752 -18.3125 32.0625 C-17.80750977 31.17771973 -17.30251953 30.29293945 -16.78222656 29.38134766 C-15.73243702 27.5417509 -14.6827979 25.70206829 -13.63330078 23.86230469 C-10.8412552 18.96933871 -8.04541824 14.07853964 -5.25 9.1875 C-4.23435823 7.41016583 -3.21873164 5.63282299 -2.203125 3.85546875 C-1.46875 2.5703125 -0.734375 1.28515625 0 0 Z " fill="#070707" transform="translate(170,34)"/>
<path d="M0 0 C0.99 0.66 1.98 1.32 3 2 C2.42655063 4.86724686 2.1385485 5.8614515 0 8 C-0.99 8 -1.98 8 -3 8 C-2.37240135 5.07120629 -1.41377341 2.63904371 0 0 Z " fill="#494949" transform="translate(66,216)"/>
<path d="M0 0 C0.99 0.33 1.98 0.66 3 1 C1.33333333 2.66666667 -0.33333333 4.33333333 -2 6 C-2.556875 6.598125 -3.11375 7.19625 -3.6875 7.8125 C-5 9 -5 9 -7 9 C-5.44499019 5.18315774 -2.96404505 2.80804268 0 0 Z " fill="#5E5E5E" transform="translate(375,155)"/>
<path d="M0 0 C0 0.66 0 1.32 0 2 C-1.32 2.33 -2.64 2.66 -4 3 C-4 2.67 -4 2.34 -4 2 C-6.64 1.67 -9.28 1.34 -12 1 C-12 0.67 -12 0.34 -12 0 C-10.37585622 -0.19477739 -8.75063577 -0.38059458 -7.125 -0.5625 C-6.22007812 -0.66691406 -5.31515625 -0.77132812 -4.3828125 -0.87890625 C-2 -1 -2 -1 0 0 Z " fill="#787878" transform="translate(238,157)"/>
</svg>
